{
	"accessors" : 
	[
		{
			"bufferView" : 2,
			"byteOffset" : 0,
			"componentType" : 5126,
			"count" : 8010,
			"max" : 
			[
				1,
				1,
				1,
				1
			],
			"min" : 
			[
				5.692175545846112e-05,
				0.05284162610769272,
				0.0328759141266346,
				1
			],
			"name" : "accessor_color_m0-PolyPaper5_-1391322",
			"type" : "VEC4"
		},
		{
			"bufferView" : 2,
			"byteOffset" : 128160,
			"componentType" : 5126,
			"count" : 9326,
			"max" : 
			[
				1,
				1,
				1,
				1
			],
			"min" : 
			[
				5.692175545846112e-05,
				0.006584956776350737,
				0.006584956776350737,
				1
			],
			"name" : "accessor_color_m1-PolyPaper17_-1391328",
			"type" : "VEC4"
		},
		{
			"bufferView" : 2,
			"byteOffset" : 277376,
			"componentType" : 5126,
			"count" : 6924,
			"max" : 
			[
				1,
				1,
				1,
				1
			],
			"min" : 
			[
				0.006584956776350737,
				0.006584956776350737,
				0.006584956776350737,
				1
			],
			"name" : "accessor_color_m3-PolyPaper21_-1391340",
			"type" : "VEC4"
		},
		{
			"bufferView" : 0,
			"byteOffset" : 0,
			"componentType" : 5123,
			"count" : 12984,
			"max" : 
			[
				8009
			],
			"min" : 
			[
				0
			],
			"name" : "accessor_indices_0_m0-PolyPaper5_-1391322",
			"type" : "SCALAR"
		},
		{
			"bufferView" : 0,
			"byteOffset" : 25968,
			"componentType" : 5123,
			"count" : 14598,
			"max" : 
			[
				9325
			],
			"min" : 
			[
				0
			],
			"name" : "accessor_indices_0_m1-PolyPaper17_-1391328",
			"type" : "SCALAR"
		},
		{
			"bufferView" : 0,
			"byteOffset" : 55164,
			"componentType" : 5123,
			"count" : 10848,
			"max" : 
			[
				6923
			],
			"min" : 
			[
				0
			],
			"name" : "accessor_indices_0_m3-PolyPaper21_-1391340",
			"type" : "SCALAR"
		},
		{
			"bufferView" : 1,
			"byteOffset" : 96120,
			"componentType" : 5126,
			"count" : 8010,
			"max" : 
			[
				0.9999698,
				0.999934,
				0.9999742
			],
			"min" : 
			[
				-0.9999897,
				-0.9998108,
				-0.9999589
			],
			"name" : "accessor_normal_m0-PolyPaper5_-1391322",
			"type" : "VEC3"
		},
		{
			"bufferView" : 1,
			"byteOffset" : 304152,
			"componentType" : 5126,
			"count" : 9326,
			"max" : 
			[
				0.9999164,
				0.9999862,
				0.9999851
			],
			"min" : 
			[
				-0.9999474,
				-0.9999809,
				-0.999958
			],
			"name" : "accessor_normal_m1-PolyPaper17_-1391328",
			"type" : "VEC3"
		},
		{
			"bufferView" : 1,
			"byteOffset" : 499152,
			"componentType" : 5126,
			"count" : 6924,
			"max" : 
			[
				0.9997989,
				0.9999117,
				0.9997455
			],
			"min" : 
			[
				-0.9999563,
				-0.9996625,
				-0.9999491
			],
			"name" : "accessor_normal_m3-PolyPaper21_-1391340",
			"type" : "VEC3"
		},
		{
			"bufferView" : 1,
			"byteOffset" : 0,
			"componentType" : 5126,
			"count" : 8010,
			"max" : 
			[
				1.236063,
				0.9251961,
				-0.08563617
			],
			"min" : 
			[
				-1.323226,
				-4.478514,
				-1.436843
			],
			"name" : "accessor_position_m0-PolyPaper5_-1391322",
			"type" : "VEC3"
		},
		{
			"bufferView" : 1,
			"byteOffset" : 192240,
			"componentType" : 5126,
			"count" : 9326,
			"max" : 
			[
				1.256732,
				0.9812701,
				-0.1237208
			],
			"min" : 
			[
				-1.30318,
				-4.461878,
				-1.532964
			],
			"name" : "accessor_position_m1-PolyPaper17_-1391328",
			"type" : "VEC3"
		},
		{
			"bufferView" : 1,
			"byteOffset" : 416064,
			"componentType" : 5126,
			"count" : 6924,
			"max" : 
			[
				1.17038,
				0.9816784,
				-0.08293876999999999
			],
			"min" : 
			[
				-1.219427,
				-4.448321,
				-1.614825
			],
			"name" : "accessor_position_m3-PolyPaper21_-1391340",
			"type" : "VEC3"
		}
	],
	"asset" : 
	{
		"copyright" : "Unknown",
		"generator" : "glTF 1-to-2 Upgrader for Google Blocks",
		"version" : "2.0"
	},
	"bufferViews" : 
	[
		{
			"buffer" : 0,
			"byteLength" : 76860,
			"byteOffset" : 0,
			"name" : "ushortBufferView",
			"target" : 34963
		},
		{
			"buffer" : 0,
			"byteLength" : 582240,
			"byteOffset" : 76860,
			"byteStride" : 12,
			"name" : "vec3BufferView",
			"target" : 34962
		},
		{
			"buffer" : 0,
			"byteLength" : 388160,
			"byteOffset" : 659100,
			"byteStride" : 16,
			"name" : "vec4BufferView",
			"target" : 34962
		}
	],
	"buffers" : 
	[
		{
			"byteLength" : 1047260,
			"name" : "model",
			"uri" : "model.bin"
		}
	],
	"materials" : 
	[
		{
			"alphaMode" : "OPAQUE",
			"doubleSided" : false,
			"name" : "BlocksPaper",
			"pbrMetallicRoughness" : 
			{
				"baseColorFactor" : 
				[
					1,
					1,
					1,
					1
				],
				"metallicFactor" : 0,
				"roughnessFactor" : 0.6
			}
		},
		{
			"alphaMode" : "BLEND",
			"doubleSided" : false,
			"name" : "BlocksGlass",
			"pbrMetallicRoughness" : 
			{
				"baseColorFactor" : 
				[
					0.2,
					0.2,
					1,
					0.3
				],
				"metallicFactor" : 1,
				"roughnessFactor" : 0.4
			}
		},
		{
			"alphaMode" : "OPAQUE",
			"doubleSided" : true,
			"name" : "BlocksGem",
			"pbrMetallicRoughness" : 
			{
				"baseColorFactor" : 
				[
					1,
					0.4,
					1,
					1
				],
				"metallicFactor" : 0,
				"roughnessFactor" : 0.1
			}
		}
	],
	"meshes" : 
	[
		{
			"name" : "mesh_m0-PolyPaper5_-1391322",
			"primitives" : 
			[
				{
					"attributes" : 
					{
						"COLOR_0" : 0,
						"NORMAL" : 6,
						"POSITION" : 9
					},
					"indices" : 3,
					"material" : 0,
					"mode" : 4
				}
			]
		},
		{
			"name" : "mesh_m1-PolyPaper17_-1391328",
			"primitives" : 
			[
				{
					"attributes" : 
					{
						"COLOR_0" : 1,
						"NORMAL" : 7,
						"POSITION" : 10
					},
					"indices" : 4,
					"material" : 0,
					"mode" : 4
				}
			]
		},
		{
			"name" : "mesh_m3-PolyPaper21_-1391340",
			"primitives" : 
			[
				{
					"attributes" : 
					{
						"COLOR_0" : 2,
						"NORMAL" : 8,
						"POSITION" : 11
					},
					"indices" : 5,
					"material" : 0,
					"mode" : 4
				}
			]
		}
	],
	"nodes" : 
	[
		{
			"matrix" : 
			[
				1,
				0,
				0,
				0,
				0,
				1,
				0,
				0,
				0,
				0,
				1,
				0,
				0,
				0,
				0,
				1
			],
			"mesh" : 2,
			"name" : "node_MeshObject1776686080-PolyPaper21"
		},
		{
			"matrix" : 
			[
				1,
				0,
				0,
				0,
				0,
				1,
				0,
				0,
				0,
				0,
				1,
				0,
				0,
				0,
				0,
				1
			],
			"mesh" : 0,
			"name" : "node_MeshObject60448768-PolyPaper5"
		},
		{
			"matrix" : 
			[
				1,
				0,
				0,
				0,
				0,
				1,
				0,
				0,
				0,
				0,
				1,
				0,
				0,
				0,
				0,
				1
			],
			"mesh" : 1,
			"name" : "node_MeshObject632527872-PolyPaper17"
		}
	],
	"scene" : 0,
	"scenes" : 
	[
		{
			"extras" : {},
			"name" : "defaultScene",
			"nodes" : 
			[
				1,
				2,
				0
			]
		}
	]
}