{
	"accessors" : 
	[
		{
			"bufferView" : 2,
			"byteOffset" : 0,
			"componentType" : 5126,
			"count" : 6306,
			"max" : 
			[
				1,
				1,
				1,
				1
			],
			"min" : 
			[
				0.006584956776350737,
				0.006584956776350737,
				0.006584956776350737,
				1
			],
			"name" : "accessor_color_m0-PolyPaper23_-264470",
			"type" : "VEC4"
		},
		{
			"bufferView" : 2,
			"byteOffset" : 100896,
			"componentType" : 5126,
			"count" : 9680,
			"max" : 
			[
				1,
				1,
				1,
				1
			],
			"min" : 
			[
				0.006584956776350737,
				0.006584956776350737,
				0.006584956776350737,
				1
			],
			"name" : "accessor_color_m1-PolyPaper23_-264282",
			"type" : "VEC4"
		},
		{
			"bufferView" : 0,
			"byteOffset" : 0,
			"componentType" : 5123,
			"count" : 8964,
			"max" : 
			[
				6305
			],
			"min" : 
			[
				0
			],
			"name" : "accessor_indices_0_m0-PolyPaper23_-264470",
			"type" : "SCALAR"
		},
		{
			"bufferView" : 0,
			"byteOffset" : 17928,
			"componentType" : 5123,
			"count" : 14154,
			"max" : 
			[
				9679
			],
			"min" : 
			[
				0
			],
			"name" : "accessor_indices_0_m1-PolyPaper23_-264282",
			"type" : "SCALAR"
		},
		{
			"bufferView" : 1,
			"byteOffset" : 75672,
			"componentType" : 5126,
			"count" : 6306,
			"max" : 
			[
				0.9968809,
				0.9980918,
				0.9992196
			],
			"min" : 
			[
				-0.9969864000000001,
				-0.9980918,
				-0.9992194
			],
			"name" : "accessor_normal_m0-PolyPaper23_-264470",
			"type" : "VEC3"
		},
		{
			"bufferView" : 1,
			"byteOffset" : 267504,
			"componentType" : 5126,
			"count" : 9680,
			"max" : 
			[
				0.9997141,
				0.9999354,
				0.9996606
			],
			"min" : 
			[
				-0.9997141,
				-0.999942,
				-0.9997336999999999
			],
			"name" : "accessor_normal_m1-PolyPaper23_-264282",
			"type" : "VEC3"
		},
		{
			"bufferView" : 1,
			"byteOffset" : 0,
			"componentType" : 5126,
			"count" : 6306,
			"max" : 
			[
				-0.2905711,
				3.100302,
				0.08258317
			],
			"min" : 
			[
				-1.776449,
				1.74759,
				-1.074764
			],
			"name" : "accessor_position_m0-PolyPaper23_-264470",
			"type" : "VEC3"
		},
		{
			"bufferView" : 1,
			"byteOffset" : 151344,
			"componentType" : 5126,
			"count" : 9680,
			"max" : 
			[
				-0.3427469,
				2.900703,
				0.07956062999999999
			],
			"min" : 
			[
				-2.109452,
				0.7645681,
				-1.20285
			],
			"name" : "accessor_position_m1-PolyPaper23_-264282",
			"type" : "VEC3"
		}
	],
	"asset" : 
	{
		"copyright" : "Unknown",
		"generator" : "glTF 1-to-2 Upgrader for Google Blocks",
		"version" : "2.0"
	},
	"bufferViews" : 
	[
		{
			"buffer" : 0,
			"byteLength" : 46236,
			"byteOffset" : 0,
			"name" : "ushortBufferView",
			"target" : 34963
		},
		{
			"buffer" : 0,
			"byteLength" : 383664,
			"byteOffset" : 46236,
			"byteStride" : 12,
			"name" : "vec3BufferView",
			"target" : 34962
		},
		{
			"buffer" : 0,
			"byteLength" : 255776,
			"byteOffset" : 429900,
			"byteStride" : 16,
			"name" : "vec4BufferView",
			"target" : 34962
		}
	],
	"buffers" : 
	[
		{
			"byteLength" : 685676,
			"name" : "model",
			"uri" : "model.bin"
		}
	],
	"materials" : 
	[
		{
			"alphaMode" : "OPAQUE",
			"doubleSided" : false,
			"name" : "BlocksPaper",
			"pbrMetallicRoughness" : 
			{
				"baseColorFactor" : 
				[
					1,
					1,
					1,
					1
				],
				"metallicFactor" : 0,
				"roughnessFactor" : 0.6
			}
		},
		{
			"alphaMode" : "BLEND",
			"doubleSided" : false,
			"name" : "BlocksGlass",
			"pbrMetallicRoughness" : 
			{
				"baseColorFactor" : 
				[
					0.2,
					0.2,
					1,
					0.3
				],
				"metallicFactor" : 1,
				"roughnessFactor" : 0.4
			}
		},
		{
			"alphaMode" : "OPAQUE",
			"doubleSided" : true,
			"name" : "BlocksGem",
			"pbrMetallicRoughness" : 
			{
				"baseColorFactor" : 
				[
					1,
					0.4,
					1,
					1
				],
				"metallicFactor" : 0,
				"roughnessFactor" : 0.1
			}
		}
	],
	"meshes" : 
	[
		{
			"name" : "mesh_m0-PolyPaper23_-264470",
			"primitives" : 
			[
				{
					"attributes" : 
					{
						"COLOR_0" : 0,
						"NORMAL" : 4,
						"POSITION" : 6
					},
					"indices" : 2,
					"material" : 0,
					"mode" : 4
				}
			]
		},
		{
			"name" : "mesh_m1-PolyPaper23_-264282",
			"primitives" : 
			[
				{
					"attributes" : 
					{
						"COLOR_0" : 1,
						"NORMAL" : 5,
						"POSITION" : 7
					},
					"indices" : 3,
					"material" : 0,
					"mode" : 4
				}
			]
		}
	],
	"nodes" : 
	[
		{
			"matrix" : 
			[
				1,
				0,
				0,
				0,
				0,
				1,
				0,
				0,
				0,
				0,
				1,
				0,
				0,
				0,
				0,
				1
			],
			"mesh" : 1,
			"name" : "node_MeshObject-1779277568-PolyPaper23"
		},
		{
			"matrix" : 
			[
				1,
				0,
				0,
				0,
				0,
				1,
				0,
				0,
				0,
				0,
				1,
				0,
				0,
				0,
				0,
				1
			],
			"mesh" : 0,
			"name" : "node_MeshObject175063552-PolyPaper23"
		}
	],
	"scene" : 0,
	"scenes" : 
	[
		{
			"extras" : {},
			"name" : "defaultScene",
			"nodes" : 
			[
				1,
				0
			]
		}
	]
}